<?xml version="1.0" encoding="utf-8"?>
<!-- Generator: Adobe Illustrator 16.1.0, SVG Export Plug-In . SVG Version: 6.00 Build 0)  -->
<!DOCTYPE svg PUBLIC "-//W3C//DTD SVG 1.1//EN" "http://www.w3.org/Graphics/SVG/1.1/DTD/svg11.dtd">
<svg version="1.1" id="Layer_1" xmlns="http://www.w3.org/2000/svg" xmlns:xlink="http://www.w3.org/1999/xlink" x="0px" y="0px"
	 width="29px" height="25px" viewBox="0 0 29 25" enable-background="new 0 0 29 25" xml:space="preserve">
<path fill="#FFFFFF" d="M29,3.523c-1.066,0.473-2.214,0.793-3.417,0.937c1.228-0.736,2.171-1.902,2.616-3.292
	c-1.15,0.682-2.424,1.177-3.779,1.444c-1.084-1.156-2.631-1.879-4.342-1.879c-3.286,0-5.95,2.664-5.95,5.95
	c0,0.466,0.053,0.92,0.154,1.356C9.337,7.791,4.953,5.422,2.019,1.822C1.507,2.701,1.213,3.723,1.213,4.813
	c0,2.064,1.05,3.885,2.647,4.952C2.885,9.735,1.967,9.467,1.166,9.021c0,0.025,0,0.05,0,0.075c0,2.883,2.051,5.288,4.772,5.833
	c-0.5,0.137-1.025,0.209-1.567,0.209c-0.383,0-0.756-0.037-1.12-0.106c0.757,2.364,2.955,4.084,5.558,4.132
	c-2.036,1.596-4.602,2.547-7.389,2.547c-0.48,0-0.954-0.027-1.419-0.083c2.633,1.688,5.76,2.673,9.12,2.673
	c10.944,0,16.929-9.066,16.929-16.928c0-0.258-0.006-0.515-0.018-0.77C27.193,5.764,28.202,4.716,29,3.523z"/>
</svg>
